<mxfile host="65bd71144e">
    <diagram name="Page-1" id="rR4khq-2CwiVMyommsQ8">
        <mxGraphModel dx="921" dy="571" grid="1" gridSize="10" guides="1" tooltips="1" connect="1" arrows="1" fold="1" page="1" pageScale="1" pageWidth="850" pageHeight="1100" math="0" shadow="0">
            <root>
                <mxCell id="0"/>
                <mxCell id="1" parent="0"/>
                <mxCell id="l-Y6i94T6LSOeRrApvME-1" value="Product" style="swimlane;childLayout=stackLayout;horizontal=1;startSize=50;horizontalStack=0;rounded=1;fontSize=14;fontStyle=0;strokeWidth=2;resizeParent=0;resizeLast=1;shadow=0;dashed=0;align=center;arcSize=4;whiteSpace=wrap;html=1;" parent="1" vertex="1">
                    <mxGeometry x="650" y="70" width="190" height="220" as="geometry"/>
                </mxCell>
                <mxCell id="2" style="edgeStyle=none;html=1;" parent="l-Y6i94T6LSOeRrApvME-1" source="l-Y6i94T6LSOeRrApvME-2" target="l-Y6i94T6LSOeRrApvME-1" edge="1">
                    <mxGeometry relative="1" as="geometry"/>
                </mxCell>
                <mxCell id="l-Y6i94T6LSOeRrApvME-2" value="id&lt;br&gt;name&lt;br&gt;&lt;br&gt;width&lt;span style=&quot;white-space: pre;&quot;&gt; &lt;/span&gt;&lt;span style=&quot;white-space: pre;&quot;&gt; &lt;/span&gt;cm&lt;br&gt;height&lt;span style=&quot;white-space: pre;&quot;&gt; &lt;/span&gt;&lt;span style=&quot;white-space: pre;&quot;&gt; &lt;/span&gt;cm&lt;br&gt;length&amp;nbsp;&lt;span style=&quot;white-space: pre;&quot;&gt; &lt;/span&gt;&lt;span style=&quot;white-space: pre;&quot;&gt; &lt;/span&gt;cm&lt;br&gt;volume&lt;span style=&quot;white-space: pre;&quot;&gt; &lt;span style=&quot;white-space: pre;&quot;&gt; &lt;/span&gt;&lt;/span&gt;WxHxL&lt;br&gt;&lt;br&gt;price&lt;br&gt;&lt;br&gt;type:&amp;nbsp;&lt;span style=&quot;white-space: pre;&quot;&gt; &lt;/span&gt;Hazardous, normal" style="align=left;strokeColor=none;fillColor=none;spacingLeft=4;fontSize=12;verticalAlign=top;resizable=0;rotatable=0;part=1;html=1;" parent="l-Y6i94T6LSOeRrApvME-1" vertex="1">
                    <mxGeometry y="50" width="190" height="170" as="geometry"/>
                </mxCell>
                <mxCell id="l-Y6i94T6LSOeRrApvME-3" value="Warehouse" style="swimlane;childLayout=stackLayout;horizontal=1;startSize=50;horizontalStack=0;rounded=1;fontSize=14;fontStyle=0;strokeWidth=2;resizeParent=0;resizeLast=1;shadow=0;dashed=0;align=center;arcSize=4;whiteSpace=wrap;html=1;" parent="1" vertex="1">
                    <mxGeometry x="60" y="120" width="260" height="220" as="geometry"/>
                </mxCell>
                <mxCell id="l-Y6i94T6LSOeRrApvME-4" value="id&lt;br&gt;&lt;br&gt;name&lt;br&gt;address&lt;br&gt;&lt;br&gt;volumeLimit&amp;nbsp;&lt;span style=&quot;white-space: pre;&quot;&gt; v&lt;/span&gt;olume of the warehouse&lt;br&gt;volume&lt;span style=&quot;white-space: pre;&quot;&gt; &lt;span style=&quot;white-space: pre;&quot;&gt; &lt;/span&gt;c&lt;/span&gt;urrent volume of all products&lt;br&gt;&lt;br&gt;type&amp;nbsp;&lt;span style=&quot;white-space: pre;&quot;&gt; &lt;/span&gt;&lt;span style=&quot;white-space: pre;&quot;&gt; &lt;/span&gt;Hazardous, normal&lt;br&gt;&lt;br&gt;userId" style="align=left;strokeColor=none;fillColor=none;spacingLeft=4;fontSize=12;verticalAlign=top;resizable=0;rotatable=0;part=1;html=1;" parent="l-Y6i94T6LSOeRrApvME-3" vertex="1">
                    <mxGeometry y="50" width="260" height="170" as="geometry"/>
                </mxCell>
                <mxCell id="l-Y6i94T6LSOeRrApvME-5" value="User" style="swimlane;childLayout=stackLayout;horizontal=1;startSize=50;horizontalStack=0;rounded=1;fontSize=14;fontStyle=0;strokeWidth=2;resizeParent=0;resizeLast=1;shadow=0;dashed=0;align=center;arcSize=4;whiteSpace=wrap;html=1;" parent="1" vertex="1">
                    <mxGeometry x="360" y="70" width="200" height="150" as="geometry"/>
                </mxCell>
                <mxCell id="l-Y6i94T6LSOeRrApvME-7" value="id" style="text;html=1;align=center;verticalAlign=middle;resizable=0;points=[];autosize=1;strokeColor=none;fillColor=none;" parent="l-Y6i94T6LSOeRrApvME-5" vertex="1">
                    <mxGeometry y="50" width="200" height="30" as="geometry"/>
                </mxCell>
                <mxCell id="l-Y6i94T6LSOeRrApvME-8" value="email&lt;br&gt;&lt;br&gt;password" style="text;html=1;align=center;verticalAlign=middle;resizable=0;points=[];autosize=1;strokeColor=none;fillColor=none;" parent="l-Y6i94T6LSOeRrApvME-5" vertex="1">
                    <mxGeometry y="80" width="200" height="70" as="geometry"/>
                </mxCell>
                <mxCell id="l-Y6i94T6LSOeRrApvME-9" style="edgeStyle=orthogonalEdgeStyle;rounded=0;orthogonalLoop=1;jettySize=auto;html=1;" parent="1" source="l-Y6i94T6LSOeRrApvME-8" edge="1">
                    <mxGeometry relative="1" as="geometry">
                        <mxPoint x="320" y="320" as="targetPoint"/>
                        <Array as="points">
                            <mxPoint x="460" y="320"/>
                        </Array>
                    </mxGeometry>
                </mxCell>
                <mxCell id="l-Y6i94T6LSOeRrApvME-10" value="Movements" style="swimlane;childLayout=stackLayout;horizontal=1;startSize=50;horizontalStack=0;rounded=1;fontSize=14;fontStyle=0;strokeWidth=2;resizeParent=0;resizeLast=1;shadow=0;dashed=0;align=center;arcSize=4;whiteSpace=wrap;html=1;" parent="1" vertex="1">
                    <mxGeometry x="210" y="410" width="250" height="160" as="geometry"/>
                </mxCell>
                <mxCell id="l-Y6i94T6LSOeRrApvME-11" value="id&lt;br&gt;&lt;br&gt;sourceId&lt;br&gt;&lt;br&gt;destinationId&lt;br&gt;&lt;br&gt;date" style="align=left;strokeColor=none;fillColor=none;spacingLeft=4;fontSize=12;verticalAlign=top;resizable=0;rotatable=0;part=1;html=1;" parent="l-Y6i94T6LSOeRrApvME-10" vertex="1">
                    <mxGeometry y="50" width="250" height="110" as="geometry"/>
                </mxCell>
                <mxCell id="l-Y6i94T6LSOeRrApvME-14" value="Junction table&lt;br&gt;Mov_Prod" style="swimlane;childLayout=stackLayout;horizontal=1;startSize=50;horizontalStack=0;rounded=1;fontSize=14;fontStyle=0;strokeWidth=2;resizeParent=0;resizeLast=1;shadow=0;dashed=0;align=center;arcSize=4;whiteSpace=wrap;html=1;" parent="1" vertex="1">
                    <mxGeometry x="570" y="400" width="200" height="150" as="geometry"/>
                </mxCell>
                <mxCell id="l-Y6i94T6LSOeRrApvME-15" value="movementId" style="text;html=1;align=center;verticalAlign=middle;resizable=0;points=[];autosize=1;strokeColor=none;fillColor=none;" parent="l-Y6i94T6LSOeRrApvME-14" vertex="1">
                    <mxGeometry y="50" width="200" height="30" as="geometry"/>
                </mxCell>
                <mxCell id="l-Y6i94T6LSOeRrApvME-16" value="productId&lt;br&gt;&lt;br&gt;quantity" style="text;html=1;align=center;verticalAlign=middle;resizable=0;points=[];autosize=1;strokeColor=none;fillColor=none;" parent="l-Y6i94T6LSOeRrApvME-14" vertex="1">
                    <mxGeometry y="80" width="200" height="70" as="geometry"/>
                </mxCell>
                <mxCell id="l-Y6i94T6LSOeRrApvME-19" style="edgeStyle=orthogonalEdgeStyle;rounded=0;orthogonalLoop=1;jettySize=auto;html=1;entryX=0;entryY=0.25;entryDx=0;entryDy=0;exitX=0;exitY=0.083;exitDx=0;exitDy=0;exitPerimeter=0;" parent="1" source="l-Y6i94T6LSOeRrApvME-4" target="l-Y6i94T6LSOeRrApvME-11" edge="1">
                    <mxGeometry relative="1" as="geometry">
                        <mxPoint x="30" y="480" as="targetPoint"/>
                        <Array as="points">
                            <mxPoint x="40" y="185"/>
                            <mxPoint x="40" y="500"/>
                            <mxPoint x="210" y="500"/>
                        </Array>
                    </mxGeometry>
                </mxCell>
                <mxCell id="l-Y6i94T6LSOeRrApvME-20" style="edgeStyle=orthogonalEdgeStyle;rounded=0;orthogonalLoop=1;jettySize=auto;html=1;exitX=0;exitY=0;exitDx=0;exitDy=0;entryX=0;entryY=0.4;entryDx=0;entryDy=0;entryPerimeter=0;" parent="1" source="l-Y6i94T6LSOeRrApvME-4" target="l-Y6i94T6LSOeRrApvME-11" edge="1">
                    <mxGeometry relative="1" as="geometry">
                        <mxPoint x="-40" y="520" as="targetPoint"/>
                        <Array as="points">
                            <mxPoint x="60" y="180"/>
                            <mxPoint x="20" y="180"/>
                            <mxPoint x="20" y="532"/>
                        </Array>
                    </mxGeometry>
                </mxCell>
                <mxCell id="l-Y6i94T6LSOeRrApvME-21" style="edgeStyle=orthogonalEdgeStyle;rounded=0;orthogonalLoop=1;jettySize=auto;html=1;exitX=0;exitY=0.5;exitDx=0;exitDy=0;entryX=1;entryY=0.286;entryDx=0;entryDy=0;entryPerimeter=0;" parent="1" source="l-Y6i94T6LSOeRrApvME-2" target="l-Y6i94T6LSOeRrApvME-16" edge="1">
                    <mxGeometry relative="1" as="geometry">
                        <Array as="points">
                            <mxPoint x="650" y="130"/>
                            <mxPoint x="610" y="130"/>
                            <mxPoint x="610" y="365"/>
                            <mxPoint x="790" y="365"/>
                            <mxPoint x="790" y="490"/>
                            <mxPoint x="770" y="490"/>
                        </Array>
                    </mxGeometry>
                </mxCell>
                <mxCell id="l-Y6i94T6LSOeRrApvME-22" style="edgeStyle=orthogonalEdgeStyle;rounded=0;orthogonalLoop=1;jettySize=auto;html=1;entryX=-0.005;entryY=0.467;entryDx=0;entryDy=0;entryPerimeter=0;" parent="1" source="l-Y6i94T6LSOeRrApvME-11" target="l-Y6i94T6LSOeRrApvME-15" edge="1">
                    <mxGeometry relative="1" as="geometry">
                        <Array as="points">
                            <mxPoint x="569" y="470"/>
                        </Array>
                    </mxGeometry>
                </mxCell>
            </root>
        </mxGraphModel>
    </diagram>
</mxfile>